HIERARCHY
ROOT ui
{
	 OFFSET 0 0 0
	 CHANNELS 3 XPosition YPosition Z Position
	 EndSite
	 {
	 OFFSET 0 -1 0
	 }
}
ROOT li
{
	 OFFSET 0 0 0
	 CHANNELS 3 XPosition YPosition Z Position
	 EndSite
	 {
	 OFFSET 0 -1 0
	 }
}
ROOT ul
{
	 OFFSET 0 0 0
	 CHANNELS 3 XPosition YPosition Z Position
	 EndSite
	 {
	 OFFSET 0 -1 0
	 }
}
ROOT ll
{
	 OFFSET 0 0 0
	 CHANNELS 3 XPosition YPosition Z Position
	 EndSite
	 {
	 OFFSET 0 -1 0
	 }
}
ROOT tt
{
	 OFFSET 0 0 0
	 CHANNELS 3 XPosition YPosition Z Position
	 EndSite
	 {
	 OFFSET 0 -1 0
	 }
}
ROOT tb
{
	 OFFSET 0 0 0
	 CHANNELS 3 XPosition YPosition Z Position
	 EndSite
	 {
	 OFFSET 0 -1 0
	 }
}
ROOT td
{
	 OFFSET 0 0 0
	 CHANNELS 3 XPosition YPosition Z Position
	 EndSite
	 {
	 OFFSET 0 -1 0
	 }
}
ROOT v
{
	 OFFSET 0 0 0
	 CHANNELS 3 XPosition YPosition Z Position
	 EndSite
	 {
	 OFFSET 0 -1 0
	 }
}
ROOT bn
{
	 OFFSET 0 0 0
	 CHANNELS 3 XPosition YPosition Z Position
	 EndSite
	 {
	 OFFSET 0 -1 0
	 }
}
MOTION
Frames: 24
Frame Time: 0.002
-0.04511539077758789	0.004391983032226563	0		0.5322498168945312	-2.609098876953125	0		-0.941562744140625	-0.21378726196289063	0		-0.3978900146484375	-2.7079013671875	0		2.12935791015625	-1.7875694580078125	0		3.469573486328125	-0.5901993408203124	0		4.9600712890625	-0.2795311584472656	0		5.85088818359375	0.2765659790039062	0		-0.3198775939941406	5.86175830078125	0		
-0.0453368034362793	0.004372289180755615	0		0.5020692138671875	-2.610776611328125	0		-0.9377464599609375	-0.210871826171875	0		-0.3354241638183594	-2.742616943359375	0		2.1271455078125	-1.790516357421875	0		3.47833251953125	-0.5932354125976562	0		4.9657685546875	-0.2874993591308594	0		5.8385615234375	0.2667130126953125	0		-0.3694077758789063	5.84626953125	0		
-0.04976333999633789	0.0014447339773178101	0		0.5325369873046875	-2.629072998046875	0		-0.938135498046875	-0.2108638153076172	0		-0.34308218383789063	-2.7725166015625	0		2.143638916015625	-1.8046226806640624	0		3.505928955078125	-0.5954314575195313	0		4.9635341796875	-0.2733343505859375	0		5.843173828125	0.24437649536132813	0		-0.3889024353027344	5.849498046875	0		
-0.04628947448730469	0.0044762248992919924	0		0.4900292663574219	-2.629526611328125	0		-0.927570068359375	-0.19992913818359376	0		-0.33393856811523437	-2.80555517578125	0		2.1540986328125	-1.80661767578125	0		3.496613037109375	-0.5741791381835938	0		4.97502490234375	-0.269277099609375	0		5.84277734375	0.24473713684082032	0		-0.36964859008789064	5.84434814453125	0		
0.029990354537963868	0.0027584810256958006	0		0.5423143310546875	-2.63597119140625	0		-0.920194580078125	-0.19291616821289062	0		-0.3348096923828125	-2.8264404296875	0		2.158498779296875	-1.8005040283203124	0		3.510800537109375	-0.5851435546875	0		4.9873798828125	-0.26418804931640627	0		5.84227685546875	0.24517010498046876	0		-0.3213111572265625	5.8599267578125	0		
0.032196365356445315	0.0058886480331420896	0		0.5115253601074219	-2.63747119140625	0		-0.912941162109375	-0.18586119079589844	0		-0.30389129638671875	-2.855631103515625	0		2.182797119140625	-1.792566650390625	0		3.530192138671875	-0.5661231689453124	0		4.9806572265625	-0.25485270690917966	0		5.84952783203125	0.24373463439941406	0		-0.29304946899414064	5.87976611328125	0		
0.03318413543701172	-0.0019322589635848999	0		0.5335790405273437	-2.644509521484375	0		-0.9227103271484375	-0.17158433532714842	0		-0.34401348876953125	-2.879013916015625	0		2.165965087890625	-1.7871474609375	0		3.52927880859375	-0.565848388671875	0		4.9887041015625	-0.2576443176269531	0		5.84886962890625	0.24429623413085938	0		-0.34325970458984373	5.8654912109375	0		
-0.04480763626098633	1.3339899480342864E-4	0		0.5046385498046875	-2.642963623046875	0		-0.9196817016601563	-0.16841441345214844	0		-0.29322430419921874	-2.903349609375	0		2.194949462890625	-1.791195068359375	0		3.528283447265625	-0.5655438232421875	0		4.99261572265625	-0.265363525390625	0		5.84815380859375	0.2449058380126953	0		-0.3925679931640625	5.84923681640625	0		
0.02806982421875	-0.004406109809875488	0		0.5254400024414062	-2.658930419921875	0		-0.9656968994140624	-0.1626864013671875	0		-0.351521240234375	-2.928478271484375	0		2.1870927734375	-1.7738184814453124	0		3.557174072265625	-0.5695400390625	0		4.99273974609375	-0.2470199432373047	0		5.83955126953125	0.24748492431640626	0		-0.32267257690429685	5.85672216796875	0		
-0.034979667663574215	0.0035454490184783937	0		0.5253785400390625	-2.656649169921875	0		-0.9547048950195313	-0.1515498046875	0		-0.2798624572753906	-2.95298681640625	0		2.19413427734375	-1.760584716796875	0		3.552303466796875	-0.5461539306640625	0		5.0106142578125	-0.24685572814941406	0		5.8544306640625	0.2460087432861328	0		-0.3589321594238281	5.85437744140625	0		
0.028806974411010742	-8.525859713554382E-4	0		0.5372718505859375	-2.654479736328125	0		-0.9637179565429688	-0.1371765899658203	0		-0.33014425659179686	-2.96716064453125	0		2.196025634765625	-1.7572830810546876	0		3.543070068359375	-0.55271337890625	0		5.0045380859375	-0.23842694091796876	0		5.8457548828125	0.246885009765625	0		-0.3553570556640625	5.83862109375	0		
-0.04936523056030274	0.0012919130325317384	0		0.5429746704101562	-2.667231689453125	0		-0.8919187622070313	-0.1386562805175781	0		-0.2465928955078125	-2.994760498046875	0		2.200954833984375	-1.7480067138671875	0		3.554017333984375	-0.5404862060546874	0		5.00335302734375	-0.2380532989501953	0		5.846189453125	0.21464309692382813	0		-0.3906632080078125	5.83429931640625	0		
0.031386505126953124	-0.004263224124908448	0		0.5377516479492187	-2.671858154296875	0		-0.9649636840820313	-0.1245640869140625	0		-0.3060789184570312	-3.023811279296875	0		2.20972412109375	-1.75277099609375	0		3.55372412109375	-0.550143310546875	0		5.01604638671875	-0.24883900451660157	0		5.83258056640625	0.23291787719726562	0		-0.3918973693847656	5.8346220703125	0		
-0.05172640609741211	0.0019489179849624635	0		0.5386210327148437	-2.668546630859375	0		-0.9620919189453125	-0.12027893829345702	0		-0.24055587768554687	-3.053198974609375	0		2.198580322265625	-1.7503250732421876	0		3.56871484375	-0.5349730224609375	0		5.013037109375	-0.23347064208984375	0		5.83538818359375	0.2507301788330078	0		-0.3779918212890625	5.84379052734375	0		
0.02412881660461426	4.5450299978256226E-4	0		0.5494117431640625	-2.67534326171875	0		-0.9570501098632812	-0.10401023864746094	0		-0.25181820678710937	-3.0647578125	0		2.20861962890625	-1.7341146240234375	0		3.5603916015625	-0.5525692138671875	0		5.0119072265625	-0.2331451416015625	0		5.830939453125	0.2340851593017578	0		-0.345061279296875	5.84875830078125	0		
0.028022783279418945	-0.0032693490982055665	0		0.57227685546875	-2.680274658203125	0		-0.8929775390625	-0.09137383270263671	0		-0.2361378936767578	-3.08660791015625	0		2.20073974609375	-1.715724609375	0		3.59744140625	-0.541671142578125	0		5.0247451171875	-0.24199713134765624	0		5.83802587890625	0.2343870086669922	0		-0.380138671875	5.8444560546875	0		
0.0220936279296875	0.0011068209409713745	0		0.5333726196289063	-2.670550048828125	0		-0.96693603515625	-0.089255126953125	0		-0.2822508544921875	-3.09579736328125	0		2.209693115234375	-1.720534423828125	0		3.579420654296875	-0.5452064208984375	0		5.0188564453125	-0.23367864990234374	0		5.8422470703125	0.21739993286132814	0		-0.39516146850585937	5.8339345703125	0		
0.02314350891113281	-0.006602365016937256	0		0.56731103515625	-2.684623046875	0		-0.9737471313476562	-0.08386221313476562	0		-0.26540484619140625	-3.117673095703125	0		2.196919677734375	-1.7091304931640625	0		3.575493896484375	-0.5499216918945312	0		5.02290234375	-0.24150416564941407	0		5.82523291015625	0.21992861938476563	0		-0.3959272155761719	5.83425390625	0		
0.022400579452514648	-0.006304370880126953	0		0.5514666137695312	-2.6881748046875	0		-0.9704487915039063	-0.07958563995361329	0		-0.2644434204101562	-3.13838916015625	0		2.171356689453125	-1.6886116943359375	0		3.595532470703125	-0.5689278564453125	0		5.013154296875	-0.24121939086914063	0		5.836181640625	0.2354923095703125	0		-0.3804556579589844	5.8423876953125	0		
0.031903596878051756	0.004868618011474609	0		0.5749393310546875	-2.67316796875	0		-0.9589478759765625	-0.0684073486328125	0		-0.27020858764648437	-3.144044921875	0		2.201758544921875	-1.68272412109375	0		3.591151123046875	-0.5457009887695312	0		5.0315205078125	-0.24227862548828125	0		5.82789453125	0.23591249084472657	0		-0.3478385314941406	5.84932275390625	0		
0.02434044647216797	-0.001790948987007141	0		0.544357177734375	-2.673595458984375	0		-0.9823060913085937	-0.0558626594543457	0		-0.2520149688720703	-3.163976318359375	0		2.18943505859375	-1.6624002685546875	0		3.554387451171875	-0.5691582641601562	0		5.0238955078125	-0.2540974884033203	0		5.84030322265625	0.2184114990234375	0		-0.36323635864257814	5.84076220703125	0		
0.023973800659179687	-0.0015456360578536988	0		0.567837158203125	-2.67863037109375	0		-0.9786422729492188	-0.052624393463134765	0		-0.27552825927734376	-3.16647021484375	0		2.15611865234375	-1.651875	0		3.577933349609375	-0.5753027954101563	0		5.0204541015625	-0.26000146484375	0		5.828556640625	0.20320057678222656	0		-0.3974532775878906	5.835392578125	0		
-0.06225637435913086	0.0016198899745941161	0		0.5316041870117187	-2.666034423828125	0		-0.9789015502929688	-0.05235840225219727	0		-0.2701007995605469	-3.183297607421875	0		2.1679794921875	-1.6348690185546875	0		3.583564697265625	-0.5832877807617187	0		5.0201865234375	-0.25998013305664064	0		5.828369140625	0.2031798400878906	0		-0.39747244262695314	5.835634765625	0		
0.02051276397705078	-0.00508358383178711	0		0.569212890625	-2.67627001953125	0		-0.98690966796875	-0.03802280426025391	0		-0.3084228515625	-3.1846630859375	0		2.104002685546875	-1.611059814453125	0		3.588597900390625	-0.56329931640625	0		5.01409228515625	-0.25293429565429687	0		5.8233359375	0.22051463317871095	0		-0.3491987609863281	5.85132958984375	0		
